<?xml version="1.0" encoding="UTF-8" standalone="no"?>
<svg
   xmlns:dc="http://purl.org/dc/elements/1.1/"
   xmlns:cc="http://creativecommons.org/ns#"
   xmlns:rdf="http://www.w3.org/1999/02/22-rdf-syntax-ns#"
   xmlns:svg="http://www.w3.org/2000/svg"
   xmlns="http://www.w3.org/2000/svg"
   xmlns:sodipodi="http://sodipodi.sourceforge.net/DTD/sodipodi-0.dtd"
   xmlns:inkscape="http://www.inkscape.org/namespaces/inkscape"
   width="500"
   height="144.078"
   version="1.1"
   id="svg98"
   sodipodi:docname="Open_Doors_Logo_03_2018.svg"
   inkscape:version="1.0.1 (3bc2e813f5, 2020-09-07)">
  <metadata
     id="metadata102">
    <rdf:RDF>
      <cc:Work
         rdf:about="">
        <dc:format>image/svg+xml</dc:format>
        <dc:type
           rdf:resource="http://purl.org/dc/dcmitype/StillImage" />
      </cc:Work>
    </rdf:RDF>
  </metadata>
  <sodipodi:namedview
     pagecolor="#ffffff"
     bordercolor="#666666"
     borderopacity="1"
     objecttolerance="10"
     gridtolerance="10"
     guidetolerance="10"
     inkscape:pageopacity="0"
     inkscape:pageshadow="2"
     inkscape:window-width="1461"
     inkscape:window-height="480"
     id="namedview100"
     showgrid="false"
     inkscape:zoom="2.2"
     inkscape:cx="250"
     inkscape:cy="72.039001"
     inkscape:window-x="411"
     inkscape:window-y="252"
     inkscape:window-maximized="0"
     inkscape:current-layer="svg98"
     inkscape:document-rotation="0" />
  <defs
     id="defs68">
    <filter
       id="a"
       color-interpolation-filters="sRGB">
      <feFlood
         flood-opacity=".498"
         flood-color="#000"
         result="flood"
         id="feFlood57" />
      <feComposite
         in="flood"
         in2="SourceGraphic"
         operator="in"
         result="composite1"
         id="feComposite59" />
      <feGaussianBlur
         in="composite1"
         stdDeviation="3"
         result="blur"
         id="feGaussianBlur61" />
      <feOffset
         dx="6"
         dy="6"
         result="offset"
         id="feOffset63" />
      <feComposite
         in="SourceGraphic"
         in2="offset"
         result="composite2"
         id="feComposite65" />
    </filter>
  </defs>
  <g
     style="line-height:125%"
     font-weight="400"
     font-size="141.282"
     font-family="Gill Sans"
     letter-spacing="1.97"
     word-spacing="0"
     fill="#514733"
     id="g72">
    <path
       d="M142.555 31.981q9.369 0 15.586 5.928 6.246 5.928 6.246 14.864 0 8.935-6.304 14.805-6.275 5.842-15.846 5.842-9.138 0-15.24-5.842-6.072-5.87-6.072-14.69 0-9.05 6.13-14.979 6.13-5.928 15.5-5.928zm.231 5.495q-6.94 0-11.422 4.337-4.454 4.338-4.454 11.075 0 6.536 4.483 10.873 4.482 4.338 11.22 4.338 6.766 0 11.277-4.424 4.54-4.425 4.54-11.018 0-6.42-4.54-10.786-4.51-4.395-11.104-4.395zM172.037 72.957V32.502h12.81q5.784 0 9.225 3.123t3.441 8.386q0 3.528-1.764 6.246-1.764 2.718-4.829 3.962-3.065 1.214-8.79 1.214h-4.28v17.524h-5.813zm11.799-35.308h-5.986v12.637h6.333q3.527 0 5.436-1.648 1.908-1.678 1.908-4.772 0-6.217-7.691-6.217zM203.37 32.56h22.903v5.147h-17.119v12.319h16.54v5.176h-16.54v12.55h17.669v5.147H203.37V32.56zM265.906 32.56h5.494v40.397h-4.974L239.418 41.87v31.086h-5.437V32.56h4.685l27.24 31.346V32.56zM298.21 72.9V32.56h13.62q8.24 0 13.041 2.487 4.8 2.457 7.634 7.258 2.834 4.8 2.834 10.468 0 4.048-1.561 7.75-1.562 3.701-4.454 6.506-2.95 2.892-6.853 4.366-2.284.897-4.193 1.215-1.909.29-7.287.29h-12.782zm13.012-35.193h-7.23v30.045h7.404q4.337 0 6.737-.578 2.4-.608 3.991-1.504 1.62-.926 2.95-2.256 4.28-4.337 4.28-10.96 0-6.506-4.396-10.612-1.62-1.533-3.73-2.516-2.082-.983-3.962-1.301-1.88-.318-6.044-.318zM363.231 31.981q9.37 0 15.587 5.928 6.246 5.928 6.246 14.864 0 8.935-6.304 14.805-6.275 5.842-15.847 5.842-9.138 0-15.24-5.842-6.072-5.87-6.072-14.69 0-9.05 6.13-14.979 6.131-5.928 15.5-5.928zm.232 5.495q-6.94 0-11.423 4.337-4.453 4.338-4.453 11.075 0 6.536 4.482 10.873 4.483 4.338 11.22 4.338 6.767 0 11.278-4.424 4.54-4.425 4.54-11.018 0-6.42-4.54-10.786-4.511-4.395-11.104-4.395zM412.87 31.981q9.369 0 15.586 5.928 6.246 5.928 6.246 14.864 0 8.935-6.304 14.805-6.275 5.842-15.847 5.842-9.138 0-15.24-5.842-6.072-5.87-6.072-14.69 0-9.05 6.13-14.979 6.131-5.928 15.5-5.928zm.23 5.495q-6.94 0-11.422 4.337-4.453 4.338-4.453 11.075 0 6.536 4.482 10.873 4.482 4.338 11.22 4.338 6.767 0 11.278-4.424 4.54-4.425 4.54-11.018 0-6.42-4.54-10.786-4.511-4.395-11.104-4.395zM442.844 72.957V32.56h10.12q6.131 0 9.717 3.036 3.614 3.036 3.614 8.212 0 3.528-1.764 6.102-1.763 2.574-5.06 3.846 1.937 1.272 3.788 3.47 1.85 2.198 5.205 7.663 2.111 3.441 3.384 5.176l2.14 2.892h-6.883l-1.764-2.66q-.087-.145-.347-.492l-1.128-1.59-1.792-2.95-1.938-3.152q-1.793-2.487-3.297-3.962-1.474-1.474-2.689-2.11-1.185-.666-4.02-.666h-1.503v17.582h-5.783zm7.518-35.481h-1.735v12.752h2.198q4.395 0 6.014-.752 1.649-.752 2.545-2.255.926-1.533.926-3.47 0-1.909-1.013-3.442-1.012-1.561-2.862-2.197-1.822-.636-6.073-.636zM489.243 56.011l-4.396-2.66q-4.135-2.516-5.899-4.945-1.735-2.458-1.735-5.639 0-4.77 3.297-7.75 3.325-2.978 8.617-2.978 5.06 0 9.283 2.834v6.564q-4.367-4.193-9.398-4.193-2.834 0-4.656 1.33-1.822 1.302-1.822 3.355 0 1.822 1.33 3.412 1.33 1.59 4.309 3.326l4.424 2.602Q500 55.664 500 62.49q0 4.858-3.268 7.894-3.238 3.037-8.443 3.037-5.986 0-10.902-3.673v-7.345q4.684 5.928 10.844 5.928 2.718 0 4.51-1.504 1.823-1.532 1.823-3.817 0-3.701-5.321-6.998z"
       style="-inkscape-font-specification:'Gill Sans'"
       id="path70" />
  </g>
  <g
     style="line-height:0%"
     font-weight="400"
     font-size="56.25px"
     font-family="'Gill Sans'"
     letter-spacing="4.64"
     word-spacing="-5.62"
     fill="#514733"
     id="g76"
     transform="translate(-0.90909089,12.727273)">
    <path
       d="m 181.705,84.53 h 2.142 v 16.084 h -2.314 V 88.1 l -4.951,6.217 h -0.426 L 171.159,88.1 v 12.514 h -2.302 V 84.531 h 2.164 l 5.354,6.608 5.33,-6.608 z m 18.755,0 h 2.313 v 9.13 q 0,1.854 -0.276,2.798 -0.265,0.944 -0.668,1.577 -0.391,0.622 -0.967,1.117 -1.91,1.646 -4.996,1.646 -3.143,0 -5.043,-1.634 -0.576,-0.507 -0.979,-1.129 -0.391,-0.633 -0.656,-1.542 -0.253,-0.91 -0.253,-2.856 v -9.106 h 2.314 v 9.13 q 0,2.267 0.518,3.154 0.518,0.886 1.577,1.428 1.06,0.53 2.499,0.53 2.049,0 3.338,-1.072 0.68,-0.575 0.979,-1.358 0.3,-0.783 0.3,-2.683 z m 7.47,0 h 2.303 v 13.99 h 7.242 v 2.095 h -9.544 V 84.531 Z m 12.135,-0.022 H 233.5 v 2.049 h -5.606 v 14.057 h -2.315 V 86.557 h -5.514 v -2.05 z m 17.568,0.022 h 2.302 v 16.084 h -2.302 V 84.531 Z m 21.678,12.354 v 2.533 q -2.533,1.381 -5.848,1.381 -2.694,0 -4.571,-1.082 -1.877,-1.082 -2.97,-2.982 -1.094,-1.9 -1.094,-4.11 0,-3.511 2.498,-5.906 2.51,-2.395 6.183,-2.395 2.533,0 5.63,1.324 v 2.476 q -2.821,-1.612 -5.515,-1.612 -2.763,0 -4.594,1.75 -1.819,1.738 -1.819,4.363 0,2.648 1.796,4.352 1.796,1.704 4.594,1.704 2.924,0 5.71,-1.796 z M 275.302,84.53 h 2.314 v 9.13 q 0,1.854 -0.276,2.798 -0.265,0.944 -0.668,1.577 -0.391,0.622 -0.967,1.117 -1.911,1.646 -4.997,1.646 -3.143,0 -5.042,-1.634 -0.576,-0.507 -0.979,-1.129 -0.391,-0.633 -0.656,-1.542 -0.253,-0.91 -0.253,-2.856 v -9.106 h 2.314 v 9.13 q 0,2.267 0.518,3.154 0.518,0.886 1.577,1.428 1.06,0.53 2.498,0.53 2.05,0 3.34,-1.072 0.678,-0.575 0.978,-1.358 0.3,-0.783 0.3,-2.683 v -9.13 z m 7.471,0 h 2.303 v 13.99 h 7.242 v 2.095 h -9.545 V 84.531 Z m 12.134,-0.022 h 13.436 v 2.049 h -5.607 v 14.057 h -2.314 V 86.557 h -5.515 v -2.05 z m 28.736,0.022 h 2.314 v 9.13 q 0,1.854 -0.276,2.798 -0.265,0.944 -0.668,1.577 -0.391,0.622 -0.967,1.117 -1.91,1.646 -4.996,1.646 -3.143,0 -5.043,-1.634 -0.576,-0.507 -0.979,-1.129 -0.391,-0.633 -0.656,-1.542 -0.253,-0.91 -0.253,-2.856 v -9.106 h 2.314 v 9.13 q 0,2.267 0.518,3.154 0.518,0.886 1.577,1.428 1.06,0.53 2.499,0.53 2.049,0 3.338,-1.072 0.68,-0.575 0.979,-1.358 0.3,-0.783 0.3,-2.683 v -9.13 z m 7.541,16.084 V 84.531 h 4.03 q 2.44,0 3.868,1.208 1.439,1.21 1.439,3.27 0,1.405 -0.703,2.43 -0.702,1.024 -2.014,1.53 0.771,0.507 1.508,1.382 0.737,0.875 2.072,3.051 0.84,1.37 1.347,2.061 l 0.852,1.151 h -2.74 l -0.702,-1.059 q -0.035,-0.057 -0.138,-0.196 l -0.45,-0.633 -0.713,-1.174 -0.772,-1.255 q -0.713,-0.99 -1.312,-1.577 -0.587,-0.588 -1.07,-0.84 -0.473,-0.266 -1.601,-0.266 h -0.599 v 7 z m 2.993,-14.126 h -0.69 v 5.077 h 0.874 q 1.75,0 2.395,-0.3 0.656,-0.299 1.013,-0.897 0.369,-0.61 0.369,-1.382 0,-0.76 -0.403,-1.37 -0.403,-0.622 -1.14,-0.875 -0.726,-0.253 -2.418,-0.253 z m 18.248,-2.05 h 1.623 l 7.196,16.176 h -2.36 l -2.142,-4.766 h -6.839 l -2.026,4.766 h -2.36 z m 3.373,9.36 -2.59,-5.825 -2.407,5.826 h 4.997 z m 9.187,-9.268 h 2.302 v 13.99 h 7.242 v 2.095 h -9.544 V 84.531 Z m 19.655,0 h 8.578 v 2.05 h -6.275 v 4.49 h 6.275 v 2.05 h -6.275 v 7.494 H 384.64 V 84.531 Z m 18.11,-0.092 h 1.623 l 7.196,16.176 h -2.36 l -2.142,-4.766 h -6.839 l -2.026,4.766 h -2.36 z m 3.373,9.36 -2.59,-5.825 -2.407,5.826 h 4.997 z m 21.989,-9.268 h 2.142 v 16.084 h -2.315 V 88.1 l -4.95,6.217 h -0.426 L 417.566,88.1 v 12.514 h -2.302 V 84.531 h 2.164 l 5.354,6.608 5.33,-6.608 z m 7.587,0 H 438 v 16.084 h -2.3 V 84.531 Z m 7.816,0 h 2.303 v 13.99 h 7.242 v 2.095 h -9.545 V 84.531 Z m 13.527,0 h 2.303 v 16.084 h -2.303 V 84.531 Z m 7.817,0 h 9.118 v 2.05 h -6.815 v 4.904 h 6.585 v 2.061 h -6.585 v 4.997 h 7.034 v 2.05 h -9.337 z m 17.718,9.338 -1.75,-1.06 q -1.646,-1.001 -2.349,-1.968 -0.69,-0.979 -0.69,-2.245 0,-1.9 1.312,-3.086 1.324,-1.186 3.43,-1.186 2.016,0 3.696,1.129 v 2.613 q -1.738,-1.67 -3.741,-1.67 -1.129,0 -1.854,0.53 -0.725,0.518 -0.725,1.336 0,0.725 0.53,1.358 0.53,0.634 1.715,1.324 l 1.761,1.036 q 2.948,1.75 2.948,4.468 0,1.934 -1.301,3.143 -1.29,1.208 -3.362,1.208 -2.383,0 -4.34,-1.462 v -2.924 q 1.865,2.36 4.317,2.36 1.082,0 1.796,-0.598 0.725,-0.61 0.725,-1.52 0,-1.474 -2.118,-2.786 z"
       style="line-height:0%;-inkscape-font-specification:'Gill Sans'"
       id="path74" />
  </g>
  <g
     style="line-height:125%"
     font-weight="400"
     font-size="39.735px"
     font-family="Georgia"
     letter-spacing="0"
     word-spacing="0"
     font-style="italic"
     fill="#a3662e"
     id="g80"
     transform="translate(-1.3636364,10.454545)">
    <path
       d="m 139.729,92.141 -1.431,6.718 q -0.383,1.806 -1.61,2.952 -1.229,1.147 -2.53,1.147 -0.716,0 -1.05,-0.276 -0.34,-0.269 -0.34,-0.684 0,-0.35 0.21,-0.618 0.212,-0.268 0.61,-0.268 0.253,0 0.448,0.114 0.187,0.114 0.333,0.284 0.114,0.139 0.26,0.374 0.139,0.236 0.245,0.407 0.626,-0.049 1.065,-0.846 0.447,-0.797 0.773,-2.277 l 1.496,-7.027 h -1.586 l 0.171,-0.74 h 1.57 l 0.114,-0.553 q 0.195,-0.943 0.618,-1.7 0.423,-0.756 0.96,-1.285 0.528,-0.52 1.195,-0.813 0.675,-0.3 1.293,-0.3 0.716,0 1.05,0.276 0.34,0.268 0.34,0.683 0,0.35 -0.203,0.618 -0.195,0.268 -0.618,0.268 -0.252,0 -0.439,-0.105 -0.187,-0.114 -0.333,-0.293 -0.163,-0.204 -0.26,-0.382 -0.098,-0.18 -0.245,-0.399 -0.56,0.024 -0.992,0.74 -0.43,0.716 -0.78,2.383 l -0.18,0.862 h 2.042 l -0.17,0.74 z m 9.841,2.196 q 0,0.96 -0.325,1.92 -0.326,0.96 -0.944,1.683 -0.626,0.748 -1.513,1.204 -0.878,0.447 -2.041,0.447 -1.35,0 -2.196,-0.87 -0.838,-0.87 -0.838,-2.343 0,-1.081 0.358,-2.016 0.358,-0.936 0.96,-1.643 0.61,-0.708 1.505,-1.139 0.902,-0.44 1.951,-0.44 1.448,0 2.261,0.887 0.822,0.879 0.822,2.31 z m -1.66,-0.309 q 0,-1.155 -0.414,-1.732 -0.407,-0.578 -1.18,-0.578 -0.674,0 -1.276,0.415 -0.594,0.415 -1.025,1.35 -0.333,0.708 -0.488,1.578 -0.154,0.862 -0.154,1.594 0,1.163 0.398,1.765 0.407,0.594 1.22,0.594 0.724,0 1.285,-0.456 0.561,-0.455 0.91,-1.155 0.35,-0.683 0.538,-1.561 0.187,-0.887 0.187,-1.814 z m 9.964,-1.561 q 0,0.227 -0.066,0.504 -0.065,0.268 -0.187,0.447 -0.146,0.22 -0.325,0.342 -0.17,0.114 -0.496,0.114 -0.44,0 -0.659,-0.22 -0.22,-0.22 -0.22,-0.488 0,-0.252 0.123,-0.561 0.122,-0.317 0.252,-0.626 -0.098,0 -0.326,0.057 -0.22,0.048 -0.536,0.203 -0.318,0.154 -0.724,0.463 -0.399,0.31 -0.854,0.822 l -1.31,5.823 h -1.512 l 1.187,-5.27 q 0.04,-0.195 0.114,-0.586 0.081,-0.39 0.081,-0.577 0,-0.456 -0.154,-0.61 -0.155,-0.155 -0.618,-0.155 -0.18,0 -0.456,0.065 -0.276,0.057 -0.43,0.098 l 0.121,-0.52 q 0.635,-0.285 1.123,-0.423 0.488,-0.139 0.837,-0.139 0.65,0 0.927,0.358 0.277,0.35 0.277,1.057 h 0.049 q 0.968,-0.837 1.464,-1.17 0.504,-0.334 1.049,-0.334 0.26,0 0.504,0.065 0.244,0.065 0.415,0.22 0.179,0.17 0.26,0.398 0.09,0.22 0.09,0.643 z"
       style="-inkscape-font-specification:'Georgia Italic'"
       id="path78" />
  </g>
  <g
     transform="matrix(.34222 0 0 .34222 -42.771 23.84)"
     filter="url(#a)"
     id="g96">
    <path
       d="M310.626-25.25c.488-3.864 2.452-9.45 6.05-9.324 3.936.274 6.185 4.594 6.512 8-.112 12.587-.712 25.2.225 37.775.05 2.262.751 5.035 2.016 5.368 1.965.225 3.934-2.843 4.234-5.53 1.888-9.9 3.288-19.988 6.7-29.526a6.853 6.853 0 0 1 2.272-3.286c1.015-.812 2.018-1.309 3.331-1.216 1.248.219 2.223 1.147 2.804 2.206.788 1.437 1.068 3.187.83 4.784-.624 4.912-1.15 9.825-1.9 14.712-6.374 38.813-12.974 77.575-20.024 116.275-2.538 14.925-6.025 29.738-7.138 44.875-3.925 47.163 3.65 94.425 15.113 140.075-10.388-10.912-26.038-16.437-40.95-14.187 9.187-6.275 12.35-17.913 12.737-28.475 2.575-46.613 4.25-93.338 2.475-140-.687-11.9-1.15-23.988-4.8-35.438-4.425-14.337-8.9-28.675-13.225-43.05-3.25-10.687-4.65-21.8-7.137-32.662-.688-2.625-1.475-5.775-4.163-7.05-1.675-.05-3.137.95-4.612 1.6-.475-3.863-2.413-8.438.2-11.938 1.466-1.924 4.057-2.336 5.488-1.028.926.449 1.394 1.61 1.973 2.433 4.735 10.078 10.902 31.209 13.514 30.233 2.646-1.258-3.625-22.025-5.013-33.1-.6-4.938-2.312-10.8 1.225-15.075 1.55-2.225 4.522-1.572 6.285-.247 3.7 2.25 3.403 7.697 4.515 11.384 2.688 10.7 6.058 32.587 8.613 32.025 1.554-.355 1.73-2.512 1.9-4.237-.375-12.113-.763-24.263-.05-36.375z"
       fill="#7f6123"
       id="path86" />
    <path
       d="M370.776-16.487c1.64-3.148 4.106-5.224 6.917-5.315 4.6.55 4.792 6.786 3.933 10.003-3.938 10.562-8.138 21.05-12.1 31.612-1.025 2.688-2.438 7.386-1.096 8.69 2.746 1.409 6.77-6.44 9.296-10.54 4.85-8.137 9.887-16.4 16.762-23 2.313-2.525 6.588-3.512 8.625-.1 2.1 6.65-3.787 11.65-6.512 17.05-4.825 8.788-14.884 25.868-13.45 27.013 1.114.68 3.088-1.288 4.687-3.25 5.72-7.853 10.603-15.342 18.892-19.462 1.047-.592 2.357-.362 3.45.035 2.687 1.244 2.05 5.645.196 8.04-2.7 3.812-5.825 7.3-8.688 10.987-11.262 14.262-22.862 28.237-34.512 42.162-14.013 17.65-23.838 38.25-31.85 59.188-9.475 24.862-14.513 51.512-13.338 78.162.763 17.188 3.6 35.413 14.463 49.35 4.325 5.813 10.575 9.713 17.05 12.725-4.775.238-8.563 4.388-8.85 9.063-.8 6.125 4.55 10.625 5.225 16.475.575 4.3.9 9.462-2.075 12.987-2.263 2.275-5.2-.362-6.65-2.237-3.225-4.35-6.588-8.65-9.5-13.213-14.978-44.244-19.749-93.15-15.824-140.312 1.113-15.137 4.126-29.713 6.664-44.638 7.05-38.7 14.124-77.7 20.499-116.512.75-4.887 1.986-9.563 2.61-14.475 1.276-3.725 6.994-5.147 8.123-1.12 1.257 11.588-1.51 22.995-1.585 34.595-.225 2.3.56 6.005 1.913 6.325 1.85.063 3.975-4.113 4.65-6.913 3.075-11.437 6.787-22.75 12.075-33.375z"
       fill="#aa862e"
       id="path88" />
    <path
       d="M245.394.778c-.7-4.012 4.346-8.29 8.171-6.565 6.625 2.588 7.11 10.3 9.098 16.313 2.988 8.75 5.46 26.661 8.817 26.175 2.065-.095-2.204-19.613-2.004-29.538.009-1.641.436-3.061.906-4.617.9-2.29 1.91-3.696 3.786-4.134 1.646-.031 3.424.923 4.037 1.713 1.396 1.799 2.109 3.914 2.645 5.961 2.487 10.863 4.499 22.963 7.749 33.65 4.898 16.86 8.38 29.022 12.514 42.102 3.65 11.45 4.113 23.538 4.8 35.438 1.777 46.666 1.252 95.994-2.475 140-.387 10.562-3.55 22.2-12.737 28.475-6.5 4.762-15.238 5.575-22.788 3.1-6.6-2.35-13.575-.638-20.35-.513 10.538-6.35 21.125-13 29.563-22.1 8.275-8.562 14.037-19.375 16.937-30.887 3.975-15.7 3.963-32.05 3.65-48.138-.4-11.637-.225-23.425-2.95-34.825-5.875-26.6-22.312-49.975-43-67.275-5.012-4.35-10.787-7.675-15.812-12-4.85-9.562-12.488-17.3-18.65-26-4.575-6.587-11.563-12.537-12.125-21.037-.2-3.538 3.812-4.75 6.537-3.375 4.638 2.125 8.138 6.025 11.95 9.325 6.15 5.462 15.064 18.963 16.55 18.075 2.75-1.327-3.95-12.188-6.75-17.875-3.462-6.85-7.537-13.375-10.887-20.275-.723-1.548-1.11-3.467-1.058-5.36.088-3.215 1.242-5.961 4.35-7.062 3.43-.996 6.25 1.633 8.325 4.193.995 1.228 1.863 2.565 2.633 3.829 5.1 8.925 8.7 18.612 13.55 27.687 1.087 1.988 2.734 5.68 4.162 5.3 2.153-.58-2.787-15.825-4.65-23.625-1.325-5.675-3.344-10.435-4.494-16.135z"
       fill="#fff0d9"
       id="path90" />
    <path
       d="M367.176 77.438c11.65-13.925 20.398-24.351 31.66-38.613 1.02-.465 3.378-.641 4.347.351 1.03 1.053.568 3.721-.27 5.562-4.475 9.475-17.93 25.658-15.737 27.163 1.144.772 4.837-2.988 6.562-5.263 7.313-9.275 14.563-18.712 23.275-26.725 3.15-3.8 11.288-1.2 9.525 4.225-5.887 13.238-25.559 33.859-24.25 35.6 1.103 1.154 4.663-1.612 6.575-3.162 10.54-8.57 19.921-17.374 31.634-24.129 1.878-1.125 4.816-1.906 6.73.084 2.455 2.67-1.528 8.602-4.164 10.932-7.225 6.475-14.2 13.225-21.375 19.763-3.537 3.312-10.617 9.722-9.4 11.075 1.423 1.75 16.863-7.813 25.35-11.588 4.45-2.362 10.325-5.8 15-2.225 2.988 2.338.088 6.113-2.437 7.438-13.438 8-27.263 15.35-41.063 22.712-3.725 2.1-7.725 4.788-8.887 9.175-.65 4.463 3.087 7.888 6.45 10.138 5.137 3.875 11.875 4.525 17.15 8.075 3.312 2.25 4.504 5.963 2.262 9.61-1.774 1.798-7.812-1.86-11.65-3.285-6.85-1.8-14.025-1.1-20.95-2.338-7.887-1.625-15.912-2.087-23.9-2.95-11.425-1.25-21.812 6.463-27.462 15.863-9.738 15.5-13.125 34.3-11.625 52.375 1.25 10.212 4.6 19.975 7.112 29.912.788 3.238 2.475 6.175 4.6 8.738 3.738 4.525 7.475 9.262 12.525 12.437 8.45 5.375 18.25 7.875 27.613 11.15 7.825 2.675 15.865 3.766 24.175 4.875 2.912.56 6.98 3.072 6.3 6.65-.829 3.503-5.063 5.075-8.463 5.675-8.362 1.1-16.637-.987-24.887-2.037-9.113-.663-17.738-4.15-26-7.838-6.475-3.012-12.725-6.912-17.05-12.725-10.863-13.937-13.7-32.162-14.463-49.35-1.175-26.65 3.863-53.3 13.338-78.162 8.012-20.938 17.837-41.538 31.85-59.188z"
       fill="#e9dd7b"
       id="path92" />
    <path
       d="M196.126 46.613c2.962-1.487 5.75.688 8.15 2.2 11.037 7.45 21.337 15.925 31.675 24.3 5.025 4.325 10.8 7.65 15.812 12 20.688 17.3 37.125 40.675 43 67.275 2.725 11.4 2.55 23.188 2.95 34.825.313 16.088.325 32.438-3.65 48.138-2.9 11.512-8.662 22.325-16.937 30.887-8.438 9.1-19.025 15.75-29.563 22.1-7.625 4.388-15.237 8.8-23.087 12.775-3.663 2.013-8.113 1.825-11.975.55-2.125-.637-1.863-3.287-.963-4.812 2.95-5.6 7.913-9.863 13.5-12.688 15.688-9.125 30.463-20.112 42.863-33.425 8.162-8.95 15.325-19.25 18.637-31.025 2.738-9.362 1.425-19.2.9-28.775-1.025-11.787-2.125-23.837-6.575-34.912-2.1-5.763-7.275-9.35-11.612-13.325-3.713-3.338-8.3-6.238-13.475-6.125-7.45.175-13.725 4.687-20 8.15-7.1 4.375-15.413 6.062-22.775 9.9-3.613 1.837-5.474 7.312-9.763 6.975-4.58-1.292-3.75-9.088.013-11.775 6.437-5.15 14.925-9.938 16.45-18.788.35-5.587-5.675-8.262-10.225-9.375-15.4-3.3-30.825-6.475-46.113-10.262-2.575-.625-6.425-1.875-6.112-5.188.225-3.525 3.958-4.568 6.912-4.567 12.138 1 36.197 5.893 36.538 4.705.829-2.328-4.713-3.888-7.438-5.25-11.062-5.65-22.262-11.063-33.337-16.713-2.738-1.275-4.703-3.172-5.04-6.072-.05-2.825 3.49-5.44 5.927-4.44 9.1 2.1 17.638 6.087 26.213 9.687 6.137 2.488 17.264 8.28 18.762 6.475.78-.9-4.1-4.475-6.6-6.2-8.512-6-17.112-11.975-24.725-19.1-1.837-1.75-3.775-4.612-2.175-7.125 2.025-2.375 5.788-3.487 8.55-1.675 10.538 5.3 20.125 12.275 29.725 19.088 2.263 1.75 6.26 4.366 7.367 2.971 1.424-1.511-14.667-13.734-21.967-20.846-2.362-2.75-4.275-8.775.163-10.538z"
       fill="#be8a51"
       id="path94" />
  </g>
</svg>
